<svg width="24" height="24" viewBox="0 0 24 24" fill="none" xmlns="http://www.w3.org/2000/svg">
<path fill-rule="evenodd" clip-rule="evenodd" d="M21.0189 11.2322L17.7395 16.5181H14.5335V20.369H6.18263V16.5181H2.97284V15.3942H6.19506C6.36069 13.2399 8.16126 11.5433 10.3581 11.5433C12.5549 11.5433 14.3555 13.2399 14.5211 15.3942H17.1141L20.0638 10.6397L21.0189 11.2322ZM10.3581 12.6672C8.67276 12.6672 7.30654 14.0335 7.30654 15.7188V19.2451H13.4096V15.7188C13.4096 14.0335 12.0434 12.6672 10.3581 12.6672Z" fill="#252525"/>
<path d="M7.30654 15.7188C7.30654 14.0335 8.67276 12.6672 10.3581 12.6672C12.0434 12.6672 13.4096 14.0335 13.4096 15.7188V19.2451H7.30654V15.7188Z" fill="#252525"/>
<path fill-rule="evenodd" clip-rule="evenodd" d="M10.2673 3.63105C12.4825 3.7645 14.8504 4.93262 16.9441 6.51295C19.0472 8.10049 20.9374 10.1518 22.1953 12.1474C22.5967 12.7843 22.587 13.5689 22.2514 14.2025L19.5898 19.2277C19.2181 19.9295 18.4889 20.3684 17.6947 20.3684H3.57696C2.37226 20.3684 1.34363 19.3506 1.51973 18.0849C2.2584 12.7761 5.35443 6.88441 9.91373 3.72986C10.0428 3.64683 10.1214 3.63067 10.2673 3.63105ZM10.9451 5.25472C10.5632 4.97247 10.0454 5.013 9.67652 5.31209C5.89373 8.37944 3.28721 13.5373 2.63291 18.2398C2.56077 18.7582 2.98041 19.2445 3.57696 19.2445H17.5483C17.5698 19.2445 17.5863 19.2257 17.5851 19.2042C17.4325 16.4194 16.3509 13.1164 14.8704 10.3238C14.1321 8.93132 13.3032 7.68213 12.4571 6.69915C11.9424 6.10124 11.4329 5.61526 10.9451 5.25472ZM17.8142 14.4822C18.1811 15.6684 20.0427 15.9714 20.6239 14.8741L21.2582 13.6764C21.4225 13.3663 21.4126 13.0134 21.2445 12.7467C20.0634 10.8729 18.2683 8.92066 16.267 7.40999C15.3622 6.72703 14.428 6.14391 13.501 5.69862C13.3361 5.61941 13.1896 5.8273 13.3089 5.96594C14.2209 7.02545 15.0949 8.34791 15.8634 9.79739C16.6378 11.2581 17.3137 12.8645 17.8142 14.4822Z" fill="#252525"/>
</svg>
