<svg width="26" height="28" viewBox="0 0 26 28" fill="none" xmlns="http://www.w3.org/2000/svg">
<g filter="url(#filter0_d_238_8)">
<path fill-rule="evenodd" clip-rule="evenodd" d="M6 4C6 3.46957 6.21071 2.96086 6.58579 2.58579C6.96086 2.21071 7.46957 2 8 2H18C18.5304 2 19.0391 2.21071 19.4142 2.58579C19.7893 2.96086 20 3.46957 20 4V5H21C21.2652 5 21.5196 5.10536 21.7071 5.29289C21.8946 5.48043 22 5.73478 22 6C22 6.26522 21.8946 6.51957 21.7071 6.70711C21.5196 6.89464 21.2652 7 21 7V18C21.2652 18 21.5196 18.1054 21.7071 18.2929C21.8946 18.4804 22 18.7348 22 19C22 19.2652 21.8946 19.5196 21.7071 19.7071C21.5196 19.8946 21.2652 20 21 20H5C4.73478 20 4.48043 19.8946 4.29289 19.7071C4.10536 19.5196 4 19.2652 4 19C4 18.7348 4.10536 18.4804 4.29289 18.2929C4.48043 18.1054 4.73478 18 5 18V7C4.73478 7 4.48043 6.89464 4.29289 6.70711C4.10536 6.51957 4 6.26522 4 6C4 5.73478 4.10536 5.48043 4.29289 5.29289C4.48043 5.10536 4.73478 5 5 5H6V4ZM18 4V5H8V4H18ZM19 7V18H15.5V15.5C15.5 14.837 15.2366 14.2011 14.7678 13.7322C14.2989 13.2634 13.663 13 13 13C12.337 13 11.7011 13.2634 11.2322 13.7322C10.7634 14.2011 10.5 14.837 10.5 15.5V18H7V7H19ZM13 15C13.1326 15 13.2598 15.0527 13.3536 15.1464C13.4473 15.2402 13.5 15.3674 13.5 15.5V18H12.5V15.5C12.5 15.3674 12.5527 15.2402 12.6464 15.1464C12.7402 15.0527 12.8674 15 13 15ZM9 12C9.26522 12 9.51957 12.1054 9.70711 12.2929C9.89464 12.4804 10 12.7348 10 13V14C10 14.2652 9.89464 14.5196 9.70711 14.7071C9.51957 14.8946 9.26522 15 9 15C8.73478 15 8.48043 14.8946 8.29289 14.7071C8.10536 14.5196 8 14.2652 8 14V13C8 12.7348 8.10536 12.4804 8.29289 12.2929C8.48043 12.1054 8.73478 12 9 12ZM17 12C17.2449 12 17.4813 12.09 17.6644 12.2527C17.8474 12.4155 17.9643 12.6397 17.993 12.883L18 13V14C17.9997 14.2549 17.9021 14.5 17.7272 14.6854C17.5522 14.8707 17.313 14.9822 17.0586 14.9972C16.8042 15.0121 16.5536 14.9293 16.3582 14.7657C16.1627 14.6021 16.0371 14.3701 16.007 14.117L16 14V13C16 12.7348 16.1054 12.4804 16.2929 12.2929C16.4804 12.1054 16.7348 12 17 12ZM9 8C9.24493 8.00003 9.48134 8.08996 9.66437 8.25272C9.84741 8.41547 9.96434 8.63975 9.993 8.883L10 9V10C9.99972 10.2549 9.90212 10.5 9.72715 10.6854C9.55218 10.8707 9.31305 10.9822 9.05861 10.9972C8.80416 11.0121 8.55362 10.9293 8.35817 10.7657C8.16271 10.6021 8.0371 10.3701 8.007 10.117L8 10V9C8 8.73478 8.10536 8.48043 8.29289 8.29289C8.48043 8.10536 8.73478 8 9 8ZM13 8C13.2449 8.00003 13.4813 8.08996 13.6644 8.25272C13.8474 8.41547 13.9643 8.63975 13.993 8.883L14 9V10C13.9997 10.2549 13.9021 10.5 13.7272 10.6854C13.5522 10.8707 13.313 10.9822 13.0586 10.9972C12.8042 11.0121 12.5536 10.9293 12.3582 10.7657C12.1627 10.6021 12.0371 10.3701 12.007 10.117L12 10V9C12 8.73478 12.1054 8.48043 12.2929 8.29289C12.4804 8.10536 12.7348 8 13 8ZM17 8C17.2652 8 17.5196 8.10536 17.7071 8.29289C17.8946 8.48043 18 8.73478 18 9V10C18 10.2652 17.8946 10.5196 17.7071 10.7071C17.5196 10.8946 17.2652 11 17 11C16.7348 11 16.4804 10.8946 16.2929 10.7071C16.1054 10.5196 16 10.2652 16 10V9C16 8.73478 16.1054 8.48043 16.2929 8.29289C16.4804 8.10536 16.7348 8 17 8Z" fill="black"/>
</g>
<defs>
<filter id="filter0_d_238_8" x="-3" y="-1" width="32" height="32" filterUnits="userSpaceOnUse" color-interpolation-filters="sRGB">
<feFlood flood-opacity="0" result="BackgroundImageFix"/>
<feColorMatrix in="SourceAlpha" type="matrix" values="0 0 0 0 0 0 0 0 0 0 0 0 0 0 0 0 0 0 127 0" result="hardAlpha"/>
<feOffset dy="4"/>
<feGaussianBlur stdDeviation="2"/>
<feComposite in2="hardAlpha" operator="out"/>
<feColorMatrix type="matrix" values="0 0 0 0 0 0 0 0 0 0 0 0 0 0 0 0 0 0 0.25 0"/>
<feBlend mode="normal" in2="BackgroundImageFix" result="effect1_dropShadow_238_8"/>
<feBlend mode="normal" in="SourceGraphic" in2="effect1_dropShadow_238_8" result="shape"/>
</filter>
</defs>
</svg>
