<svg width="24" height="24" viewBox="0 0 24 24" fill="none" xmlns="http://www.w3.org/2000/svg">
<path fill-rule="evenodd" clip-rule="evenodd" d="M10.7489 3.23283C10.7489 2.27581 11.5247 1.5 12.4817 1.5C13.4387 1.5 14.2145 2.27581 14.2145 3.23283V21.3947H16.9857C17.2909 21.3947 17.5383 21.6422 17.5383 21.9474C17.5383 22.2526 17.2909 22.5 16.9857 22.5H7.88133C7.57612 22.5 7.3287 22.2526 7.3287 21.9474C7.3287 21.6422 7.57612 21.3947 7.88133 21.3947H10.7489V3.23283ZM11.8541 21.3947H13.1093V3.23283C13.1093 2.88623 12.8283 2.60526 12.4817 2.60526C12.1351 2.60526 11.8541 2.88623 11.8541 3.23283V21.3947Z" fill="#252525"/>
<path fill-rule="evenodd" clip-rule="evenodd" d="M4.85689 3.76945C5.00665 3.61219 5.21432 3.52319 5.43148 3.52319H11.0606C11.4989 3.52319 11.8541 3.87845 11.8541 4.31668V6.86976C11.8541 7.30799 11.4989 7.66325 11.0606 7.66325H5.43148C5.21432 7.66325 5.00665 7.57424 4.85689 7.41699L3.64113 6.14045C3.34928 5.834 3.34928 5.35244 3.64113 5.04599L4.85689 3.76945ZM5.5651 4.62846L4.64628 5.59322L5.5651 6.55798H10.7489V4.62846H5.5651Z" fill="#252525"/>
<path d="M4.64628 5.59322L5.5651 4.62846H10.7489V6.55798H5.5651L4.64628 5.59322Z" fill="#252525"/>
<path fill-rule="evenodd" clip-rule="evenodd" d="M19.1431 6.80422C18.9933 6.64696 18.7856 6.55796 18.5685 6.55796H13.9027C13.4645 6.55796 13.1093 6.91322 13.1093 7.35145V9.90453C13.1093 10.3428 13.4645 10.698 13.9027 10.698H18.5685C18.7856 10.698 18.9933 10.609 19.1431 10.4518L20.3588 9.17522C20.6507 8.86877 20.6507 8.3872 20.3588 8.08075L19.1431 6.80422ZM18.4349 7.66322L19.3537 8.62799L18.4349 9.59275H14.2145V7.66322H18.4349Z" fill="#252525"/>
<path d="M19.3537 8.62799L18.4349 7.66322H14.2145V9.59275H18.4349L19.3537 8.62799Z" fill="#252525"/>
<path fill-rule="evenodd" clip-rule="evenodd" d="M7.74717 10.1762C7.89694 10.019 8.10461 9.92997 8.32177 9.92997H11.0606C11.4989 9.92997 11.8541 10.2852 11.8541 10.7235V13.2765C11.8541 13.7148 11.4989 14.07 11.0606 14.07H8.32177C8.10461 14.07 7.89694 13.981 7.74717 13.8238L6.53142 12.5472C6.23956 12.2408 6.23956 11.7592 6.53142 11.4528L7.74717 10.1762ZM8.45538 11.0352L7.53656 12L8.45538 12.9648H10.7489V11.0352H8.45538Z" fill="#252525"/>
<path d="M7.53656 12L8.45538 11.0352H10.7489V12.9648H8.45538L7.53656 12Z" fill="#252525"/>
</svg>
