<svg width="24" height="24" viewBox="0 0 24 24" fill="none" xmlns="http://www.w3.org/2000/svg">
<path fill-rule="evenodd" clip-rule="evenodd" d="M12.2392 9.04349C12.2392 9.3564 11.9855 9.61006 11.6726 9.61006H4.38225C4.06934 9.61006 3.81567 9.3564 3.81567 9.04349C3.81567 8.73058 4.06934 8.47691 4.38225 8.47691H11.6726C11.9855 8.47691 12.2392 8.73058 12.2392 9.04349Z" fill="#252525"/>
<path fill-rule="evenodd" clip-rule="evenodd" d="M12.2392 6.39464C12.2392 6.70755 11.9855 6.96121 11.6726 6.96121H4.38225C4.06934 6.96121 3.81567 6.70755 3.81567 6.39464C3.81567 6.08173 4.06934 5.82806 4.38225 5.82806H11.6726C11.9855 5.82806 12.2392 6.08173 12.2392 6.39464Z" fill="#252525"/>
<path fill-rule="evenodd" clip-rule="evenodd" d="M12.2392 11.6924C12.2392 12.0053 11.9855 12.259 11.6726 12.259H4.38225C4.06934 12.259 3.81567 12.0053 3.81567 11.6924C3.81567 11.3795 4.06934 11.1258 4.38225 11.1258H11.6726C11.9855 11.1258 12.2392 11.3795 12.2392 11.6924Z" fill="#252525"/>
<path fill-rule="evenodd" clip-rule="evenodd" d="M22.4633 17.3346C22.4633 17.6475 22.2096 17.9011 21.8967 17.9011H14.6063C14.2934 17.9011 14.0397 17.6475 14.0397 17.3346C14.0397 17.0217 14.2934 16.768 14.6063 16.768H21.8967C22.2096 16.768 22.4633 17.0217 22.4633 17.3346Z" fill="#252525"/>
<path fill-rule="evenodd" clip-rule="evenodd" d="M22.4633 14.6857C22.4633 14.9986 22.2096 15.2522 21.8967 15.2522H14.6063C14.2934 15.2522 14.0397 14.9986 14.0397 14.6857C14.0397 14.3727 14.2934 14.1191 14.6063 14.1191H21.8967C22.2096 14.1191 22.4633 14.3727 22.4633 14.6857Z" fill="#252525"/>
<path fill-rule="evenodd" clip-rule="evenodd" d="M1.50012 5.2717C1.50012 4.08102 2.46536 3.11578 3.65604 3.11578H12.4504C13.6411 3.11578 14.6063 4.08102 14.6063 5.2717V20.8841H2.59648C1.99098 20.8841 1.50012 20.3932 1.50012 19.7877V5.2717ZM3.65604 4.24893C3.09118 4.24893 2.63327 4.70684 2.63327 5.2717V19.7509H13.4732V5.2717C13.4732 4.70684 13.0153 4.24893 12.4504 4.24893H3.65604Z" fill="#252525"/>
<path fill-rule="evenodd" clip-rule="evenodd" d="M13.473 13.6423C13.473 12.4516 14.4382 11.4864 15.6289 11.4864H20.3439C21.5346 11.4864 22.4999 12.4516 22.4999 13.6423V19.7878C22.4999 20.3933 22.009 20.8841 21.4035 20.8841H13.473V13.6423ZM15.6289 12.6195C15.064 12.6195 14.6061 13.0774 14.6061 13.6423V19.751H21.3667V13.6423C21.3667 13.0774 20.9088 12.6195 20.3439 12.6195H15.6289Z" fill="#252525"/>
<path fill-rule="evenodd" clip-rule="evenodd" d="M4.73108 17.3508C4.73108 15.4872 6.24186 13.9764 8.1055 13.9764C9.96914 13.9764 11.4799 15.4872 11.4799 17.3508V20.8842H4.73108V17.3508ZM8.1055 15.1095C6.86768 15.1095 5.86422 16.113 5.86422 17.3508V19.751H10.3468V17.3508C10.3468 16.113 9.34332 15.1095 8.1055 15.1095Z" fill="#252525"/>
<path d="M5.86422 17.3508C5.86422 16.113 6.86768 15.1095 8.1055 15.1095C9.34332 15.1095 10.3468 16.113 10.3468 17.3508V19.751H5.86422V17.3508Z" fill="#252525"/>
</svg>
