<svg width="24" height="24" viewBox="0 0 24 24" fill="none" xmlns="http://www.w3.org/2000/svg">
<path d="M7.36381 16.4463C6.37369 17.2868 7.16324 18.8926 8.43344 18.6217L8.89851 18.5226C9.4695 18.4008 10.066 18.5373 10.5232 18.8943L10.9347 19.2157C11.9541 20.0118 13.3634 18.925 12.8524 17.7368L11.6463 14.9317C11.3142 14.1594 10.3299 13.9285 9.68902 14.4725L7.36381 16.4463Z" fill="#252525"/>
<path d="M5.91681 9.87662C4.80266 9.21653 3.54331 10.4781 4.20534 11.5911L4.46278 12.0239C4.75727 12.519 4.80927 13.1177 4.60442 13.6545L4.4826 13.9737C4.02163 15.1817 5.47369 16.2091 6.45939 15.3724L8.71264 13.4596C9.36725 12.904 9.27959 11.8689 8.54086 11.4313L5.91681 9.87662Z" fill="#252525"/>
<path fill-rule="evenodd" clip-rule="evenodd" d="M15.5799 1.4C15.169 -0.0556778 13.2788 -0.488195 12.2538 0.638926L8.33315 4.95015C8.22806 5.06571 8.07558 5.1288 7.91787 5.12199L2.03414 4.86767C0.495904 4.80118 -0.507537 6.43107 0.268455 7.73566L3.23661 12.7257C3.31617 12.8595 3.33023 13.0212 3.27488 13.1663L1.21015 18.577C0.670344 19.9916 1.94043 21.4315 3.44502 21.1106L9.20006 19.8834C9.35432 19.8505 9.51549 19.8874 9.63899 19.9839L14.2466 23.5822C15.4513 24.523 17.2397 23.783 17.3936 22.2801L17.9822 16.5316C17.998 16.3775 18.0835 16.2385 18.2152 16.1531L23.1276 12.9662C24.4119 12.1331 24.2471 10.2359 22.8377 9.62787L17.4464 7.30229C17.3019 7.23995 17.1936 7.11719 17.1515 6.96794L15.5799 1.4ZM9.39251 5.87724C9.00352 6.30498 8.43913 6.53851 7.85538 6.51328L7.58006 6.50138C6.28112 6.44524 5.77036 8.16293 6.88893 8.82564L9.32271 10.2676C10.0476 10.697 10.9811 10.301 11.176 9.48129L11.8459 6.66375C12.1447 5.40724 10.574 4.57808 9.70501 5.5336L9.39251 5.87724ZM15.7833 7.33957C15.9393 7.89199 16.3401 8.34639 16.875 8.57712L17.1036 8.67573C18.298 9.19097 18.0089 10.9608 16.7126 11.0692L13.8851 11.3055C13.0375 11.3764 12.3681 10.5982 12.5649 9.77069L13.2376 6.94137C13.5358 5.68745 15.3066 5.65056 15.6567 6.89096L15.7833 7.33957ZM16.5697 16.3924C16.6281 15.822 16.9448 15.3077 17.4321 14.9915L17.8301 14.7333C18.9206 14.0259 18.341 12.3307 17.0457 12.439L14.0163 12.6922C13.1656 12.7633 12.6348 13.6474 12.9721 14.4317L14.1384 17.1441C14.6476 18.3284 16.3989 18.0601 16.5302 16.7777L16.5697 16.3924Z" fill="#252525"/>
</svg>
