<svg width="20" height="20" viewBox="0 0 20 20" fill="none" xmlns="http://www.w3.org/2000/svg">
<path d="M15.5533 14.7498C14.1468 13.3435 12.2392 12.5534 10.2503 12.5534C8.26129 12.5534 6.35376 13.3435 4.94727 14.7498M16.0003 1.80383C14.6222 1.00822 12.9845 0.792613 11.4475 1.20444C9.91044 1.61627 8.59994 2.6218 7.80427 3.99984L18.1963 9.99984C18.9919 8.62176 19.2075 6.98408 18.7957 5.44704C18.3838 3.91 17.3783 2.59951 16.0003 1.80383Z" stroke="#252525" stroke-width="2" stroke-linecap="round" stroke-linejoin="round"/>
<path d="M14.7322 7.99985C16.3902 5.12985 16.9572 2.35585 16.0002 1.80385C15.0432 1.25185 12.9252 3.12985 11.2682 5.99985M13.0002 6.99985L10.0002 12.1958M1.00024 17.2498C1.31154 17.0951 1.65274 17.0098 2.00024 16.9998C2.38974 16.9917 2.77537 17.0785 3.12382 17.2527C3.47227 17.4269 3.77307 17.6834 4.00024 17.9998C4.22741 18.3163 4.52822 18.5728 4.87667 18.747C5.22512 18.9212 5.61075 19.008 6.00024 18.9998C6.38974 19.008 6.77537 18.9212 7.12382 18.747C7.47227 18.5728 7.77307 18.3163 8.00024 17.9998C8.22741 17.6834 8.52822 17.4269 8.87667 17.2527C9.22512 17.0785 9.61075 16.9917 10.0002 16.9998C10.3897 16.9917 10.7754 17.0785 11.1238 17.2527C11.4723 17.4269 11.7731 17.6834 12.0002 17.9998C12.2274 18.3163 12.5282 18.5728 12.8767 18.747C13.2251 18.9212 13.6107 19.008 14.0002 18.9998C14.3897 19.008 14.7754 18.9212 15.1238 18.747C15.4723 18.5728 15.7731 18.3163 16.0002 17.9998C16.2274 17.6834 16.5282 17.4269 16.8767 17.2527C17.2251 17.0785 17.6107 16.9917 18.0002 16.9998C18.3477 17.0098 18.689 17.0951 19.0002 17.2498" stroke="#252525" stroke-width="2" stroke-linecap="round" stroke-linejoin="round"/>
</svg>
