<svg width="24" height="23" viewBox="0 0 24 23" fill="none" xmlns="http://www.w3.org/2000/svg">
<path d="M23 18H10M23 18V13L21 8H12L9.95 12.975L10 18M23 18V19.5M10 18V19.5M21.85 12H11.15M1 12V17C1 17.2652 1.10536 17.5196 1.29289 17.7071C1.48043 17.8946 1.73478 18 2 18H7M1 12V4C1 3.73478 1.10536 3.48043 1.29289 3.29289C1.48043 3.10536 1.73478 3 2 3H13C13.2652 3 13.5196 3.10536 13.7071 3.29289C13.8946 3.48043 14 3.73478 14 4V5M1 12H7M4.5 18.5L3.5 19.5M20 15.004H20.004V15H20V15.004ZM13 15.004H13.004V15H13V15.004ZM4 15.004H4.004V15H4V15.004Z" stroke="black" stroke-width="2" stroke-linecap="square"/>
</svg>
