<svg width="20" height="25" viewBox="0 0 20 25" fill="none" xmlns="http://www.w3.org/2000/svg">
<path fill-rule="evenodd" clip-rule="evenodd" d="M3.30168 4.16372C3.30168 6.37891 5.28269 6.20155 5.28269 6.20155V8.68217C5.28269 8.68217 3.16961 13.0233 1.32067 11.094C1.32067 13.0226 3.16961 13.0226 3.16961 13.0226H3.96202V15.5033C3.96202 15.5033 2.37721 19.8443 0 17.9157C0 18.9513 0.686089 19.4313 1.32067 19.6533V24.8062H18.4894V19.6533C19.1247 19.4313 19.8101 18.9519 19.8101 17.9157C17.9948 19.3885 16.4688 17.2056 15.8481 16.0912V13.0233H16.6405C16.6405 13.0233 18.4894 13.0233 18.4894 11.094C16.9891 12.6592 15.1626 10.0967 14.5274 9.07411V6.20155C14.5274 6.20155 16.5084 6.37891 16.5084 4.16372C13.8671 6.82171 9.90504 0 9.90504 0C9.90504 0 5.94303 6.82171 3.30168 4.16372ZM2.64135 23.5659V19.845H3.96202V23.5659H2.64135ZM5.28269 23.5659H6.60336V22.3256C6.60336 21.9966 6.74251 21.6812 6.99018 21.4485C7.23785 21.2159 7.57377 21.0853 7.92404 21.0853H11.8861C12.2363 21.0853 12.5722 21.2159 12.8199 21.4485C13.0676 21.6812 13.2067 21.9966 13.2067 22.3256V23.5659H14.5274V19.845H5.28269V23.5659ZM15.8481 19.845V23.5659H17.1687V19.845H15.8481ZM13.2067 6.20155V8.68217H11.8861V8.06202C11.8861 7.89754 11.8165 7.7398 11.6926 7.6235C11.5688 7.5072 11.4008 7.44186 11.2257 7.44186C11.0506 7.44186 10.8826 7.5072 10.7588 7.6235C10.635 7.7398 10.5654 7.89754 10.5654 8.06202V8.68217H9.24471V8.06202C9.24471 7.89754 9.17514 7.7398 9.0513 7.6235C8.92746 7.5072 8.7595 7.44186 8.58437 7.44186C8.40924 7.44186 8.24128 7.5072 8.11744 7.6235C7.99361 7.7398 7.92404 7.89754 7.92404 8.06202V8.68217H6.60336V6.20155H13.2067ZM5.28269 15.5039V13.0233H14.5274V15.5039H13.2067V14.8837C13.2067 14.7192 13.1372 14.5615 13.0133 14.4452C12.8895 14.3289 12.7215 14.2636 12.5464 14.2636C12.3713 14.2636 12.2033 14.3289 12.0795 14.4452C11.9556 14.5615 11.8861 14.7192 11.8861 14.8837V15.5039H10.5654V14.8837C10.5654 14.7192 10.4958 14.5615 10.372 14.4452C10.2481 14.3289 10.0802 14.2636 9.90504 14.2636C9.72991 14.2636 9.56195 14.3289 9.43812 14.4452C9.31428 14.5615 9.24471 14.7192 9.24471 14.8837V15.5039H7.92404V14.8837C7.92404 14.7192 7.85447 14.5615 7.73063 14.4452C7.60679 14.3289 7.43883 14.2636 7.2637 14.2636C7.08857 14.2636 6.92061 14.3289 6.79677 14.4452C6.67293 14.5615 6.60336 14.7192 6.60336 14.8837V15.5039H5.28269Z" fill="black"/>
</svg>
